<svg width="41" height="40" viewBox="0 0 41 40" fill="none" xmlns="http://www.w3.org/2000/svg">
<path d="M4.70312 4C4.70312 1.79086 6.49399 0 8.70312 0H24.7031L36.7031 12V36C36.7031 38.2091 34.9123 40 32.7031 40H8.70312C6.49399 40 4.70312 38.2091 4.70312 36V4Z" fill="#00A5B5"/>
<path opacity="0.3" d="M24.7031 0L36.7031 12H28.7031C26.494 12 24.7031 10.2091 24.7031 8V0Z" fill="white"/>
<path d="M17.3485 27.7461H15.9486C15.9231 27.565 15.8709 27.4041 15.792 27.2635C15.7132 27.1207 15.612 26.9993 15.4884 26.8991C15.3648 26.799 15.2221 26.7223 15.0601 26.669C14.9003 26.6158 14.7267 26.5891 14.5392 26.5891C14.2004 26.5891 13.9053 26.6733 13.6539 26.8416C13.4025 27.0078 13.2075 27.2507 13.069 27.5703C12.9305 27.8878 12.8613 28.2734 12.8613 28.7273C12.8613 29.1939 12.9305 29.5859 13.069 29.9034C13.2097 30.2209 13.4057 30.4606 13.6571 30.6225C13.9085 30.7844 14.1994 30.8654 14.5296 30.8654C14.715 30.8654 14.8865 30.8409 15.0442 30.7919C15.204 30.7429 15.3457 30.6715 15.4692 30.5778C15.5928 30.4819 15.6951 30.3658 15.7761 30.2294C15.8592 30.093 15.9167 29.9375 15.9486 29.7628L17.3485 29.7692C17.3123 30.0696 17.2217 30.3594 17.0768 30.6385C16.9341 30.9155 16.7413 31.1637 16.4984 31.3832C16.2576 31.6005 15.9699 31.7731 15.6354 31.9009C15.303 32.0266 14.927 32.0895 14.5072 32.0895C13.9234 32.0895 13.4014 31.9574 12.9412 31.6932C12.4831 31.429 12.1209 31.0465 11.8545 30.5458C11.5903 30.0451 11.4582 29.4389 11.4582 28.7273C11.4582 28.0135 11.5925 27.4062 11.8609 26.9055C12.1294 26.4048 12.4937 26.0234 12.954 25.7614C13.4142 25.4972 13.932 25.3651 14.5072 25.3651C14.8865 25.3651 15.2381 25.4183 15.5619 25.5249C15.8879 25.6314 16.1766 25.7869 16.428 25.9915C16.6795 26.1939 16.884 26.4421 17.0417 26.7362C17.2015 27.0302 17.3038 27.3668 17.3485 27.7461ZM21.8916 27.337C21.8661 27.0792 21.7563 26.8789 21.5625 26.7362C21.3686 26.5934 21.1054 26.522 20.773 26.522C20.5472 26.522 20.3565 26.554 20.201 26.6179C20.0454 26.6797 19.9261 26.766 19.843 26.8768C19.762 26.9876 19.7215 27.1133 19.7215 27.2539C19.7173 27.3711 19.7418 27.4734 19.7951 27.5607C19.8505 27.6481 19.9261 27.7237 20.022 27.7876C20.1179 27.8494 20.2286 27.9038 20.3544 27.9506C20.4801 27.9954 20.6143 28.0337 20.7571 28.0657L21.3451 28.2063C21.6306 28.2702 21.8927 28.3555 22.1313 28.462C22.37 28.5685 22.5767 28.6996 22.7514 28.8551C22.9261 29.0107 23.0614 29.1939 23.1573 29.4048C23.2553 29.6158 23.3054 29.8576 23.3075 30.1303C23.3054 30.5309 23.2031 30.8782 23.0007 31.1722C22.8004 31.4641 22.5106 31.6911 22.1313 31.853C21.7542 32.0128 21.2993 32.0927 20.7666 32.0927C20.2382 32.0927 19.778 32.0117 19.386 31.8498C18.996 31.6879 18.6914 31.4482 18.4719 31.1307C18.2546 30.8111 18.1406 30.4158 18.1299 29.945H19.4691C19.484 30.1644 19.5468 30.3477 19.6576 30.4947C19.7706 30.6396 19.9208 30.7493 20.1083 30.8239C20.2979 30.8963 20.512 30.9325 20.7507 30.9325C20.985 30.9325 21.1885 30.8984 21.3611 30.8303C21.5358 30.7621 21.6711 30.6673 21.767 30.5458C21.8629 30.4244 21.9108 30.2848 21.9108 30.1271C21.9108 29.9801 21.8671 29.8565 21.7798 29.7564C21.6946 29.6562 21.5688 29.571 21.4027 29.5007C21.2386 29.4304 21.0372 29.3665 20.7986 29.3089L20.0859 29.13C19.534 28.9957 19.0983 28.7859 18.7787 28.5004C18.4591 28.2148 18.3004 27.8303 18.3025 27.3466C18.3004 26.9503 18.4059 26.604 18.6189 26.3079C18.8341 26.0117 19.1292 25.7805 19.5042 25.6143C19.8792 25.4482 20.3054 25.3651 20.7826 25.3651C21.2684 25.3651 21.6924 25.4482 22.0546 25.6143C22.419 25.7805 22.7024 26.0117 22.9048 26.3079C23.1072 26.604 23.2116 26.9471 23.218 27.337H21.8916ZM25.4209 25.4545L27.0029 30.4276H27.0636L28.6488 25.4545H30.1829L27.9265 32H26.1432L23.8836 25.4545H25.4209Z" fill="white"/>
</svg>
