<svg width="21" height="20" viewBox="0 0 21 20" fill="none" xmlns="http://www.w3.org/2000/svg">
<path d="M7.36979 14.1663H14.0365M9.88454 2.30297L4.23262 6.6989C3.85481 6.99276 3.66591 7.13968 3.52981 7.32368C3.40926 7.48667 3.31946 7.67029 3.26481 7.86551C3.20312 8.0859 3.20312 8.32521 3.20312 8.80384V14.833C3.20312 15.7664 3.20312 16.2331 3.38478 16.5896C3.54457 16.9032 3.79954 17.1582 4.11314 17.318C4.46966 17.4996 4.93637 17.4996 5.86979 17.4996H15.5365C16.4699 17.4996 16.9366 17.4996 17.2931 17.318C17.6067 17.1582 17.8617 16.9032 18.0215 16.5896C18.2031 16.2331 18.2031 15.7664 18.2031 14.833V8.80384C18.2031 8.32521 18.2031 8.0859 18.1414 7.86551C18.0868 7.67029 17.997 7.48667 17.8764 7.32368C17.7403 7.13968 17.5514 6.99276 17.1736 6.69891L11.5217 2.30297C11.2289 2.07526 11.0826 1.9614 10.9209 1.91763C10.7783 1.87902 10.628 1.87902 10.4853 1.91763C10.3237 1.9614 10.1773 2.07526 9.88454 2.30297Z" stroke="#A4A7AE" stroke-width="1.66667" stroke-linecap="round" stroke-linejoin="round"/>
</svg>
